<mxfile host="app.diagrams.net" modified="2023-12-19T03:59:22.417Z" agent="Mozilla/5.0 (Windows NT 10.0; Win64; x64) AppleWebKit/537.36 (KHTML, like Gecko) Chrome/120.0.0.0 Safari/537.36" etag="QTpV4cZxrEc-GOOVK60z" version="22.1.11" type="github">
  <diagram name="Page-1" id="e3a06f82-3646-2815-327d-82caf3d4e204">
    <mxGraphModel dx="1521" dy="833" grid="1" gridSize="10" guides="1" tooltips="1" connect="1" arrows="1" fold="1" page="1" pageScale="1.5" pageWidth="1169" pageHeight="826" background="none" math="0" shadow="0">
      <root>
        <mxCell id="0" style=";html=1;" />
        <mxCell id="1" style=";html=1;" parent="0" />
        <mxCell id="6a7d8f32e03d9370-58" value="" style="whiteSpace=wrap;html=1;fillColor=#dae8fc;fontSize=14;strokeColor=none;verticalAlign=top;movable=1;resizable=1;rotatable=1;deletable=1;editable=1;locked=0;connectable=1;" parent="1" vertex="1">
          <mxGeometry x="0.5" y="760" width="520" height="440" as="geometry" />
        </mxCell>
        <mxCell id="6a7d8f32e03d9370-61" value="" style="whiteSpace=wrap;html=1;fillColor=#f8cecc;fontSize=14;strokeColor=none;verticalAlign=top;" parent="1" vertex="1">
          <mxGeometry x="760" y="280" width="520" height="440" as="geometry" />
        </mxCell>
        <mxCell id="6a7d8f32e03d9370-60" value="" style="whiteSpace=wrap;html=1;fillColor=#d5e8d4;fontSize=14;strokeColor=none;verticalAlign=top;movable=1;resizable=1;rotatable=1;deletable=1;editable=1;locked=0;connectable=1;" parent="1" vertex="1">
          <mxGeometry x="760" y="760" width="520" height="440" as="geometry" />
        </mxCell>
        <mxCell id="_Fg3832ocY5UdGi91KtJ-26" style="edgeStyle=orthogonalEdgeStyle;rounded=0;orthogonalLoop=1;jettySize=auto;html=1;startArrow=doubleBlock;startFill=1;strokeColor=#00CC00;endArrow=doubleBlock;endFill=1;" parent="1" source="6a7d8f32e03d9370-60" edge="1">
          <mxGeometry relative="1" as="geometry">
            <mxPoint x="650" y="520" as="targetPoint" />
          </mxGeometry>
        </mxCell>
        <mxCell id="6a7d8f32e03d9370-57" value="" style="whiteSpace=wrap;html=1;fillColor=#FFD470;gradientColor=none;fontSize=14;strokeColor=none;verticalAlign=top;" parent="1" vertex="1">
          <mxGeometry y="280" width="520" height="440" as="geometry" />
        </mxCell>
        <mxCell id="nh6uhX6UCBA931svxPW4-37" style="edgeStyle=orthogonalEdgeStyle;rounded=1;orthogonalLoop=1;jettySize=auto;html=1;entryX=0;entryY=0.5;entryDx=0;entryDy=0;startArrow=doubleBlock;startFill=1;strokeColor=#00CC00;endArrow=doubleBlock;endFill=1;" parent="1" source="6a7d8f32e03d9370-13" target="6a7d8f32e03d9370-61" edge="1">
          <mxGeometry relative="1" as="geometry">
            <mxPoint x="713" y="510" as="targetPoint" />
          </mxGeometry>
        </mxCell>
        <mxCell id="6a7d8f32e03d9370-13" value="" style="verticalLabelPosition=bottom;aspect=fixed;html=1;verticalAlign=top;strokeColor=none;shape=mxgraph.citrix.router;fillColor=#66B2FF;gradientColor=#0066CC;fontSize=14;" parent="1" vertex="1">
          <mxGeometry x="610" y="481.75" width="55" height="36.5" as="geometry" />
        </mxCell>
        <mxCell id="_Fg3832ocY5UdGi91KtJ-34" style="edgeStyle=orthogonalEdgeStyle;rounded=0;orthogonalLoop=1;jettySize=auto;html=1;startArrow=classic;startFill=1;" parent="1" source="6a7d8f32e03d9370-29" target="nh6uhX6UCBA931svxPW4-12" edge="1">
          <mxGeometry relative="1" as="geometry" />
        </mxCell>
        <mxCell id="6a7d8f32e03d9370-29" value="VM: 10.10.20.100" style="verticalLabelPosition=top;aspect=fixed;html=1;verticalAlign=bottom;strokeColor=none;shape=mxgraph.citrix.thin_client;fillColor=#66B2FF;gradientColor=#0066CC;fontSize=14;labelPosition=center;align=center;" parent="1" vertex="1">
          <mxGeometry x="1134.5" y="340" width="71" height="71" as="geometry" />
        </mxCell>
        <mxCell id="6a7d8f32e03d9370-62" value="Growing Technology Company - Network Topology" style="text;strokeColor=none;fillColor=none;html=1;fontSize=24;fontStyle=1;verticalAlign=middle;align=center;" parent="1" vertex="1">
          <mxGeometry x="349.75" y="170" width="630.5" height="20" as="geometry" />
        </mxCell>
        <mxCell id="_Fg3832ocY5UdGi91KtJ-35" style="edgeStyle=orthogonalEdgeStyle;rounded=0;orthogonalLoop=1;jettySize=auto;html=1;entryX=0;entryY=0.5;entryDx=0;entryDy=0;startArrow=classic;startFill=1;" parent="1" source="nh6uhX6UCBA931svxPW4-12" target="_Fg3832ocY5UdGi91KtJ-22" edge="1">
          <mxGeometry relative="1" as="geometry" />
        </mxCell>
        <mxCell id="nh6uhX6UCBA931svxPW4-12" value="" style="verticalLabelPosition=bottom;sketch=0;aspect=fixed;html=1;verticalAlign=top;strokeColor=none;align=center;outlineConnect=0;shape=mxgraph.citrix.switch;" parent="1" vertex="1">
          <mxGeometry x="760" y="479.25" width="92" height="41.5" as="geometry" />
        </mxCell>
        <mxCell id="_Fg3832ocY5UdGi91KtJ-14" style="edgeStyle=orthogonalEdgeStyle;rounded=0;orthogonalLoop=1;jettySize=auto;html=1;entryX=1;entryY=0.5;entryDx=0;entryDy=0;" parent="1" source="nh6uhX6UCBA931svxPW4-13" target="_Fg3832ocY5UdGi91KtJ-7" edge="1">
          <mxGeometry relative="1" as="geometry" />
        </mxCell>
        <mxCell id="_Fg3832ocY5UdGi91KtJ-25" style="edgeStyle=orthogonalEdgeStyle;rounded=0;orthogonalLoop=1;jettySize=auto;html=1;startArrow=doubleBlock;startFill=1;strokeColor=#00CC00;endArrow=doubleBlock;endFill=1;" parent="1" edge="1">
          <mxGeometry relative="1" as="geometry">
            <mxPoint x="620" y="520" as="targetPoint" />
            <mxPoint x="520.5" y="981.5999999999999" as="sourcePoint" />
          </mxGeometry>
        </mxCell>
        <mxCell id="_Fg3832ocY5UdGi91KtJ-44" value="10GBASE-T" style="edgeLabel;html=1;align=center;verticalAlign=middle;resizable=0;points=[];" parent="_Fg3832ocY5UdGi91KtJ-25" vertex="1" connectable="0">
          <mxGeometry x="-0.8088" y="-3" relative="1" as="geometry">
            <mxPoint x="6" y="-3" as="offset" />
          </mxGeometry>
        </mxCell>
        <mxCell id="nh6uhX6UCBA931svxPW4-13" value="" style="verticalLabelPosition=bottom;sketch=0;aspect=fixed;html=1;verticalAlign=top;strokeColor=none;align=center;outlineConnect=0;shape=mxgraph.citrix.switch;" parent="1" vertex="1">
          <mxGeometry x="428.5" y="960.75" width="92" height="41.5" as="geometry" />
        </mxCell>
        <mxCell id="_Fg3832ocY5UdGi91KtJ-31" style="edgeStyle=orthogonalEdgeStyle;rounded=0;orthogonalLoop=1;jettySize=auto;html=1;startArrow=classic;startFill=1;" parent="1" source="nh6uhX6UCBA931svxPW4-14" target="_Fg3832ocY5UdGi91KtJ-30" edge="1">
          <mxGeometry relative="1" as="geometry" />
        </mxCell>
        <mxCell id="nh6uhX6UCBA931svxPW4-14" value="" style="verticalLabelPosition=bottom;sketch=0;aspect=fixed;html=1;verticalAlign=top;strokeColor=none;align=center;outlineConnect=0;shape=mxgraph.citrix.switch;" parent="1" vertex="1">
          <mxGeometry x="760" y="960.75" width="92" height="41.5" as="geometry" />
        </mxCell>
        <mxCell id="_Fg3832ocY5UdGi91KtJ-12" style="edgeStyle=orthogonalEdgeStyle;rounded=0;orthogonalLoop=1;jettySize=auto;html=1;startArrow=classic;startFill=1;" parent="1" source="nh6uhX6UCBA931svxPW4-17" target="nh6uhX6UCBA931svxPW4-13" edge="1">
          <mxGeometry relative="1" as="geometry">
            <mxPoint x="360" y="940" as="targetPoint" />
          </mxGeometry>
        </mxCell>
        <mxCell id="nh6uhX6UCBA931svxPW4-17" value="VM: 10.10.30.100" style="verticalLabelPosition=top;aspect=fixed;html=1;verticalAlign=bottom;strokeColor=none;shape=mxgraph.citrix.thin_client;fillColor=#66B2FF;gradientColor=#0066CC;fontSize=14;labelPosition=center;align=center;" parent="1" vertex="1">
          <mxGeometry x="70.5" y="820" width="71" height="71" as="geometry" />
        </mxCell>
        <mxCell id="_Fg3832ocY5UdGi91KtJ-17" style="edgeStyle=orthogonalEdgeStyle;rounded=0;orthogonalLoop=1;jettySize=auto;html=1;startArrow=classic;startFill=1;" parent="1" source="nh6uhX6UCBA931svxPW4-18" target="nh6uhX6UCBA931svxPW4-14" edge="1">
          <mxGeometry relative="1" as="geometry" />
        </mxCell>
        <mxCell id="nh6uhX6UCBA931svxPW4-18" value="VM: 10.10.40.100" style="verticalLabelPosition=top;aspect=fixed;html=1;verticalAlign=bottom;strokeColor=none;shape=mxgraph.citrix.thin_client;fillColor=#66B2FF;gradientColor=#0066CC;fontSize=14;labelPosition=center;align=center;" parent="1" vertex="1">
          <mxGeometry x="1134.5" y="820" width="71" height="71" as="geometry" />
        </mxCell>
        <mxCell id="nh6uhX6UCBA931svxPW4-34" value="Encrypted VPN Tunnel" style="outlineConnect=0;dashed=0;verticalLabelPosition=bottom;verticalAlign=top;align=center;html=1;shape=mxgraph.aws3.encrypted_data;fillColor=#7D7C7C;gradientColor=none;" parent="1" vertex="1">
          <mxGeometry x="260" y="570" width="20" height="23" as="geometry" />
        </mxCell>
        <mxCell id="_Fg3832ocY5UdGi91KtJ-9" value="" style="group" parent="1" vertex="1" connectable="0">
          <mxGeometry x="45.5" y="920" width="140" height="240" as="geometry" />
        </mxCell>
        <mxCell id="_Fg3832ocY5UdGi91KtJ-5" value="Client" style="verticalLabelPosition=top;aspect=fixed;html=1;verticalAlign=bottom;shape=mxgraph.citrix.thin_client;fontSize=14;labelPosition=center;align=center;gradientDirection=south;opacity=20;movable=1;resizable=1;rotatable=1;deletable=1;editable=1;locked=0;connectable=1;" parent="_Fg3832ocY5UdGi91KtJ-9" vertex="1">
          <mxGeometry x="30" y="140" width="71" height="71" as="geometry" />
        </mxCell>
        <mxCell id="_Fg3832ocY5UdGi91KtJ-6" value="Client" style="verticalLabelPosition=top;aspect=fixed;html=1;verticalAlign=bottom;shape=mxgraph.citrix.thin_client;fontSize=14;labelPosition=center;align=center;gradientDirection=south;opacity=20;movable=1;resizable=1;rotatable=1;deletable=1;editable=1;locked=0;connectable=1;" parent="_Fg3832ocY5UdGi91KtJ-9" vertex="1">
          <mxGeometry x="30" y="40" width="71" height="71" as="geometry" />
        </mxCell>
        <mxCell id="_Fg3832ocY5UdGi91KtJ-7" value="" style="rounded=1;whiteSpace=wrap;html=1;dashed=1;fillColor=none;movable=1;resizable=1;rotatable=1;deletable=1;editable=1;locked=0;connectable=1;" parent="_Fg3832ocY5UdGi91KtJ-9" vertex="1">
          <mxGeometry width="140" height="240" as="geometry" />
        </mxCell>
        <mxCell id="_Fg3832ocY5UdGi91KtJ-10" value="" style="endArrow=none;html=1;rounded=0;" parent="1" source="6a7d8f32e03d9370-58" edge="1">
          <mxGeometry width="50" height="50" relative="1" as="geometry">
            <mxPoint x="400" y="810" as="sourcePoint" />
            <mxPoint x="450" y="760" as="targetPoint" />
          </mxGeometry>
        </mxCell>
        <mxCell id="_Fg3832ocY5UdGi91KtJ-13" style="edgeStyle=orthogonalEdgeStyle;rounded=0;orthogonalLoop=1;jettySize=auto;html=1;startArrow=classic;startFill=1;" parent="1" source="_Fg3832ocY5UdGi91KtJ-7" target="nh6uhX6UCBA931svxPW4-13" edge="1">
          <mxGeometry relative="1" as="geometry" />
        </mxCell>
        <mxCell id="_Fg3832ocY5UdGi91KtJ-19" value="" style="group" parent="1" vertex="1" connectable="0">
          <mxGeometry x="1100" y="440" width="140" height="240" as="geometry" />
        </mxCell>
        <mxCell id="_Fg3832ocY5UdGi91KtJ-20" value="Client" style="verticalLabelPosition=top;aspect=fixed;html=1;verticalAlign=bottom;shape=mxgraph.citrix.thin_client;fontSize=14;labelPosition=center;align=center;gradientDirection=south;opacity=20;movable=1;resizable=1;rotatable=1;deletable=1;editable=1;locked=0;connectable=1;" parent="_Fg3832ocY5UdGi91KtJ-19" vertex="1">
          <mxGeometry x="30" y="140" width="71" height="71" as="geometry" />
        </mxCell>
        <mxCell id="_Fg3832ocY5UdGi91KtJ-21" value="Client" style="verticalLabelPosition=top;aspect=fixed;html=1;verticalAlign=bottom;shape=mxgraph.citrix.thin_client;fontSize=14;labelPosition=center;align=center;gradientDirection=south;opacity=20;movable=1;resizable=1;rotatable=1;deletable=1;editable=1;locked=0;connectable=1;" parent="_Fg3832ocY5UdGi91KtJ-19" vertex="1">
          <mxGeometry x="30" y="40" width="71" height="71" as="geometry" />
        </mxCell>
        <mxCell id="_Fg3832ocY5UdGi91KtJ-22" value="" style="rounded=1;whiteSpace=wrap;html=1;dashed=1;fillColor=none;movable=1;resizable=1;rotatable=1;deletable=1;editable=1;locked=0;connectable=1;" parent="_Fg3832ocY5UdGi91KtJ-19" vertex="1">
          <mxGeometry width="140" height="240" as="geometry" />
        </mxCell>
        <mxCell id="_Fg3832ocY5UdGi91KtJ-27" value="" style="group" parent="1" vertex="1" connectable="0">
          <mxGeometry x="1100" y="920" width="140" height="240" as="geometry" />
        </mxCell>
        <mxCell id="_Fg3832ocY5UdGi91KtJ-28" value="Client" style="verticalLabelPosition=top;aspect=fixed;html=1;verticalAlign=bottom;shape=mxgraph.citrix.thin_client;fontSize=14;labelPosition=center;align=center;gradientDirection=south;opacity=20;movable=1;resizable=1;rotatable=1;deletable=1;editable=1;locked=0;connectable=1;" parent="_Fg3832ocY5UdGi91KtJ-27" vertex="1">
          <mxGeometry x="30" y="140" width="71" height="71" as="geometry" />
        </mxCell>
        <mxCell id="_Fg3832ocY5UdGi91KtJ-29" value="Client" style="verticalLabelPosition=top;aspect=fixed;html=1;verticalAlign=bottom;shape=mxgraph.citrix.thin_client;fontSize=14;labelPosition=center;align=center;gradientDirection=south;opacity=20;movable=1;resizable=1;rotatable=1;deletable=1;editable=1;locked=0;connectable=1;" parent="_Fg3832ocY5UdGi91KtJ-27" vertex="1">
          <mxGeometry x="30" y="40" width="71" height="71" as="geometry" />
        </mxCell>
        <mxCell id="_Fg3832ocY5UdGi91KtJ-30" value="" style="rounded=1;whiteSpace=wrap;html=1;dashed=1;fillColor=none;movable=1;resizable=1;rotatable=1;deletable=1;editable=1;locked=0;connectable=1;" parent="_Fg3832ocY5UdGi91KtJ-27" vertex="1">
          <mxGeometry width="140" height="240" as="geometry" />
        </mxCell>
        <mxCell id="_Fg3832ocY5UdGi91KtJ-36" value="" style="verticalLabelPosition=bottom;aspect=fixed;html=1;verticalAlign=top;strokeColor=none;shape=mxgraph.citrix.router;fillColor=#66B2FF;gradientColor=#0066CC;fontSize=14;" parent="1" vertex="1">
          <mxGeometry x="280" y="481.75" width="55" height="36.5" as="geometry" />
        </mxCell>
        <mxCell id="_Fg3832ocY5UdGi91KtJ-39" value="&lt;h1&gt;VLAN 40: Expansion&lt;/h1&gt;&lt;p&gt;IP Range: 10.10.40.1 - 10.10.40.254&lt;br&gt;Infrastructure Range: 10.10.40.1 - 10.10.40.9&lt;br&gt;Static Range: 10.10.40.10 - 10.10.40.99&lt;br&gt;DHCP Range: 10.10.40.100 - 10.10.40.199&lt;br&gt;Internal/IoT Range: 10.10.40.200 - 10.10.40.254&lt;br&gt;&lt;br&gt;&lt;/p&gt;" style="text;html=1;strokeColor=none;fillColor=none;spacing=5;spacingTop=-20;whiteSpace=wrap;overflow=hidden;rounded=0;" parent="1" vertex="1">
          <mxGeometry x="760" y="1070" width="300" height="120" as="geometry" />
        </mxCell>
        <mxCell id="_Fg3832ocY5UdGi91KtJ-40" value="&lt;h1&gt;VLAN 10: Management&lt;/h1&gt;&lt;p&gt;IP Range: 10.10.10.1 - 10.10.10.254&lt;br&gt;Infrastructure Range: 10.10.40.1 - 10.10.40.99&lt;br&gt;DHCP Range: 10.10.40.100 - 10.10.40.199&lt;br&gt;Internal/IoT Range: 10.10.40.200 - 10.10.40.254&lt;br&gt;&lt;br&gt;&lt;/p&gt;" style="text;html=1;strokeColor=none;fillColor=none;spacing=5;spacingTop=-20;whiteSpace=wrap;overflow=hidden;rounded=0;" parent="1" vertex="1">
          <mxGeometry x="240" y="610" width="280" height="110" as="geometry" />
        </mxCell>
        <mxCell id="_Fg3832ocY5UdGi91KtJ-41" value="&lt;h1&gt;VLAN 20: Sales &amp;amp; Marketing&lt;/h1&gt;&lt;p&gt;IP Range: 10.10.20.1 - 10.10.20.254&lt;br&gt;Infrastructure Range: 10.10.20.1 - 10.10.20.9&lt;br&gt;Static Range: 10.10.20.10 - 10.10.20.99&lt;br&gt;DHCP Range: 10.10.20.100 - 10.10.20.199&lt;br&gt;Internal/IoT Range: 10.10.20.200 - 10.10.20.254&lt;br&gt;&lt;br&gt;&lt;/p&gt;" style="text;html=1;strokeColor=none;fillColor=none;spacing=5;spacingTop=-20;whiteSpace=wrap;overflow=hidden;rounded=0;" parent="1" vertex="1">
          <mxGeometry x="760" y="590" width="330" height="130" as="geometry" />
        </mxCell>
        <mxCell id="_Fg3832ocY5UdGi91KtJ-42" value="&lt;h1&gt;VLAN 30: Research and Development&lt;br&gt;&lt;/h1&gt;&lt;p&gt;IP Range: 10.10.30.1 - 10.10.30.254&lt;br&gt;Infrastructure Range: 10.10.30.1 - 10.10.30.9&lt;br&gt;Static Range: 10.10.30.10 - 10.10.30.99&lt;br&gt;DHCP Range: 10.10.30.100 - 10.10.30.199&lt;br&gt;Internal/IoT Range: 10.10.30.200 - 10.10.30.254&lt;br&gt;&lt;br&gt;&lt;/p&gt;" style="text;html=1;strokeColor=none;fillColor=none;spacing=5;spacingTop=-20;whiteSpace=wrap;overflow=hidden;rounded=0;" parent="1" vertex="1">
          <mxGeometry x="240" y="1040" width="280" height="150" as="geometry" />
        </mxCell>
        <mxCell id="_Fg3832ocY5UdGi91KtJ-45" value="10GBASE-T" style="edgeLabel;html=1;align=center;verticalAlign=middle;resizable=0;points=[];" parent="1" vertex="1" connectable="0">
          <mxGeometry x="570" y="994.5999999999999" as="geometry">
            <mxPoint x="123" y="-15" as="offset" />
          </mxGeometry>
        </mxCell>
        <mxCell id="_Fg3832ocY5UdGi91KtJ-46" value="10GBASE-T" style="edgeLabel;html=1;align=center;verticalAlign=middle;resizable=0;points=[];" parent="1" vertex="1" connectable="0">
          <mxGeometry x="600" y="1004.5999999999999" as="geometry">
            <mxPoint x="108" y="-504" as="offset" />
          </mxGeometry>
        </mxCell>
        <mxCell id="6a7d8f32e03d9370-25" value="Secure Server" style="verticalLabelPosition=bottom;aspect=fixed;html=1;verticalAlign=top;strokeColor=none;shape=mxgraph.citrix.proxy_server;fillColor=#66B2FF;gradientColor=#0066CC;fontSize=14;" parent="1" vertex="1">
          <mxGeometry x="62.25" y="280" width="76.5" height="90" as="geometry" />
        </mxCell>
        <mxCell id="_Fg3832ocY5UdGi91KtJ-54" value="" style="group" parent="1" vertex="1" connectable="0">
          <mxGeometry x="0.5" y="500" width="200" height="218.5" as="geometry" />
        </mxCell>
        <mxCell id="_Fg3832ocY5UdGi91KtJ-52" value="" style="sketch=0;pointerEvents=1;shadow=0;dashed=0;html=1;strokeColor=#6c8ebf;fillColor=#dae8fc;labelPosition=center;verticalLabelPosition=bottom;verticalAlign=top;outlineConnect=0;align=center;shape=mxgraph.office.services.verification_service;container=0;" parent="_Fg3832ocY5UdGi91KtJ-54" vertex="1">
          <mxGeometry y="87.75" width="40" height="40.75" as="geometry" />
        </mxCell>
        <mxCell id="6a7d8f32e03d9370-30" value="Web service" style="verticalLabelPosition=middle;aspect=fixed;html=1;verticalAlign=middle;strokeColor=none;shape=mxgraph.citrix.web_service;fillColor=#66B2FF;gradientColor=#0066CC;fontSize=14;container=0;labelPosition=right;align=left;" parent="_Fg3832ocY5UdGi91KtJ-54" vertex="1">
          <mxGeometry x="1.2100000000000364" y="9.25" width="41.21" height="39.25" as="geometry" />
        </mxCell>
        <mxCell id="nh6uhX6UCBA931svxPW4-1" value="" style="image;sketch=0;aspect=fixed;html=1;points=[];align=center;fontSize=12;image=img/lib/mscae/DNS.svg;container=0;" parent="_Fg3832ocY5UdGi91KtJ-54" vertex="1">
          <mxGeometry x="1.2099999999999795" y="48.5" width="39.25" height="39.25" as="geometry" />
        </mxCell>
        <mxCell id="_Fg3832ocY5UdGi91KtJ-32" value="" style="rounded=1;whiteSpace=wrap;html=1;fillColor=none;dashed=1;container=0;" parent="_Fg3832ocY5UdGi91KtJ-54" vertex="1">
          <mxGeometry width="200" height="218.5" as="geometry" />
        </mxCell>
        <mxCell id="_Fg3832ocY5UdGi91KtJ-57" value="Secure Server: Services" style="text;html=1;strokeColor=none;fillColor=none;align=center;verticalAlign=middle;whiteSpace=wrap;rounded=0;" parent="1" vertex="1">
          <mxGeometry x="45.25" y="470" width="110.5" height="30" as="geometry" />
        </mxCell>
        <mxCell id="_Fg3832ocY5UdGi91KtJ-58" value="" style="fontColor=#0066CC;verticalAlign=top;verticalLabelPosition=bottom;labelPosition=center;align=center;html=1;outlineConnect=0;fillColor=#CCCCCC;strokeColor=#6881B3;gradientColor=none;gradientDirection=north;strokeWidth=2;shape=mxgraph.networks.firewall;" parent="1" vertex="1">
          <mxGeometry x="650" y="460" width="30" height="28.5" as="geometry" />
        </mxCell>
        <mxCell id="r5elW0VxAyG1ImCirG1p-3" value="&lt;h1&gt;WAN&lt;/h1&gt;" style="text;html=1;strokeColor=none;fillColor=none;align=center;verticalAlign=middle;whiteSpace=wrap;rounded=0;" vertex="1" parent="1">
          <mxGeometry x="180.5" y="220" width="124.25" height="40" as="geometry" />
        </mxCell>
        <mxCell id="r5elW0VxAyG1ImCirG1p-10" value="&lt;b&gt;&lt;font style=&quot;font-size: 16px;&quot;&gt;Internet&lt;/font&gt;&lt;/b&gt;" style="ellipse;shape=cloud;whiteSpace=wrap;html=1;fillColor=none;" vertex="1" parent="1">
          <mxGeometry x="400.5" y="280" width="120" height="80" as="geometry" />
        </mxCell>
        <mxCell id="r5elW0VxAyG1ImCirG1p-20" value="" style="endArrow=none;html=1;rounded=0;entryX=0.55;entryY=0.95;entryDx=0;entryDy=0;entryPerimeter=0;" edge="1" parent="1" target="r5elW0VxAyG1ImCirG1p-10">
          <mxGeometry width="50" height="50" relative="1" as="geometry">
            <mxPoint x="467" y="500" as="sourcePoint" />
            <mxPoint x="630" y="380" as="targetPoint" />
            <Array as="points" />
          </mxGeometry>
        </mxCell>
        <mxCell id="r5elW0VxAyG1ImCirG1p-21" value="" style="shape=flexArrow;endArrow=classic;startArrow=classic;html=1;rounded=0;entryX=-0.04;entryY=0.505;entryDx=0;entryDy=0;entryPerimeter=0;exitX=1.015;exitY=0.593;exitDx=0;exitDy=0;exitPerimeter=0;strokeWidth=3;" edge="1" parent="1" source="_Fg3832ocY5UdGi91KtJ-36" target="6a7d8f32e03d9370-13">
          <mxGeometry width="100" height="100" relative="1" as="geometry">
            <mxPoint x="480" y="600" as="sourcePoint" />
            <mxPoint x="580" y="500" as="targetPoint" />
          </mxGeometry>
        </mxCell>
      </root>
    </mxGraphModel>
  </diagram>
</mxfile>
